<svg width="512" height="512" viewBox="0 0 512 512" fill="none" xmlns="http://www.w3.org/2000/svg">
    <defs>
        <filter id="shadow" x="-10%" y="-10%" width="120%" height="130%">
            <feDropShadow dx="4" dy="6" stdDeviation="8" flood-color="#000000" flood-opacity="0.2"/>
        </filter>
    </defs>
    <!-- Background -->
    <rect width="512" height="512" rx="96" fill="#1E3A8A"/>
    <!-- Swoosh -->
    <path d="M-10 490 C 150 490, 320 280, 522 350 V 512 H -10 Z" fill="#38BDF8"/>
    <!-- Icons Group with Shadow -->
    <g filter="url(#shadow)">
        <!-- Calendar -->
        <g transform="translate(112, 160)">
            <!-- Body -->
            <path d="M16 0 C 7.163 0 0 7.163 0 16 V 176 C 0 184.837 7.163 192 16 192 H 176 C 184.837 192 192 184.837 192 176 V 16 C 192 7.163 184.837 0 176 0 H 16 Z" fill="white"/>
            <!-- Rings -->
            <path d="M32 -24 V 12 H 48 V -24 H 32 Z M 72 -24 V 12 H 88 V -24 H 72 Z M 112 -24 V 12 H 128 V -24 H 112 Z M 152 -24 V 12 H 168 V -24 H 152 Z" fill="white"/>
            <!-- Grid -->
            <g fill="#E0E7FF">
                <rect x="24" y="48" width="32" height="24" rx="4"/> <rect x="72" y="48" width="32" height="24" rx="4"/> <rect x="120" y="48" width="32" height="24" rx="4"/>
                <rect x="24" y="90" width="32" height="24" rx="4"/> <rect x="72" y="90" width="32" height="24" rx="4"/> <rect x="120" y="90" width="32" height="24" rx="4"/>
                <rect x="24" y="132" width="32" height="24" rx="4"/> <rect x="72" y="132" width="32" height="24" rx="4"/> <rect x="120" y="132" width="32" height="24" rx="4"/>
            </g>
        </g>
        
        <!-- Paper Plane -->
        <g>
            <!-- Bottom wing/body (darker shade) -->
            <path d="M280 128 L 440 208 L 280 288 L 312 208 L 280 128 Z" fill="#F3F4F6"/>
            <!-- Top wing (lighter) -->
            <path d="M280 128 L 440 208 L 312 208 Z" fill="white"/>
        </g>
    </g>
</svg>
